<?xml version="1.0" standalone="no"?><!DOCTYPE svg PUBLIC "-//W3C//DTD SVG 1.1//EN" "http://www.w3.org/Graphics/SVG/1.1/DTD/svg11.dtd"><svg t="1783552608246" class="icon" viewBox="0 0 1024 1024" version="1.1" xmlns="http://www.w3.org/2000/svg" p-id="1873" xmlns:xlink="http://www.w3.org/1999/xlink" width="16" height="16"><path d="M887.6 911.3c0 12.5-4.9 24.4-13.8 33.2-8.8 8.8-20.8 13.8-33.2 13.8H182.9c-12.5 0-24.4-4.9-33.2-13.8-8.8-8.8-13.8-20.8-13.8-33.2V65.7c0-12.5 4.9-24.4 13.8-33.2 8.8-8.8 20.8-13.8 33.2-13.8h403.5c12.5-0.1 24.5 4.8 33.4 13.6l254.1 254.1c8.8 8.9 13.7 20.9 13.6 33.4v591.5z m0 0" fill="#EBECF0" p-id="1874"></path><path d="M887.6 911.3v47c0 12.5-4.9 24.4-13.8 33.2-8.8 8.8-20.8 13.8-33.2 13.8H182.9c-25.9 0-47-21-47-47v-47c0 12.5 4.9 24.4 13.8 33.2 8.8 8.8 20.8 13.8 33.2 13.8h657.7c12.5 0 24.4-4.9 33.2-13.8 8.8-8.8 13.8-20.7 13.8-33.2z m0 0" fill="#C1C7D0" p-id="1875"></path><path d="M42.5 535.1H982V770c0 12.5-5 24.4-13.8 33.2-8.8 8.8-20.8 13.8-33.2 13.8H89.5c-12.5 0-24.4-4.9-33.2-13.8-8.8-8.8-13.8-20.8-13.8-33.2V535.1z m0 0" fill="#59A6FD" p-id="1876"></path><path d="M136 535.5v-94l-94 94h94z m751.6 0l0.9-94 93.5 94h-94.4z m0 0" fill="#318AD3" p-id="1877"></path><path d="M887.6 319.9v6.6H633.4c-25.9 0-47-21-47-47V18.8c12.5-0.1 24.5 4.8 33.4 13.6l254.6 254.1c8.6 9 13.4 21 13.2 33.4z m0 0" fill="#C1C7D0" p-id="1878"></path><path d="M523.7 720.6h-32c-0.1-4.6-0.1-7.4-0.1-8.4 0-10.4 1.7-18.9 5.2-25.6 3.4-6.7 10.3-14.2 20.6-22.6 10.3-8.4 16.4-13.8 18.5-16.4 3.1-4.1 4.7-8.6 4.7-13.6 0-6.9-2.7-12.7-8.2-17.6-5.5-4.9-12.9-7.3-22.2-7.3-9 0-16.5 2.5-22.5 7.7-6 5.1-10.2 12.9-12.4 23.4l-32.4-4c0.9-15 7.3-27.7 19.2-38.2 11.8-10.5 27.4-15.7 46.7-15.7 20.3 0 36.4 5.3 48.3 15.9 12 10.6 18 22.9 18 37 0 7.8-2.2 15.2-6.6 22.1-4.4 6.9-13.8 16.4-28.2 28.4-7.5 6.2-12.1 11.2-13.9 15-2 3.4-2.8 10.2-2.7 19.9z m-32 47.4v-35.3H527V768h-35.3z" fill="#FFFFFF" p-id="1879"></path></svg>