<?xml version="1.0" standalone="no"?><!DOCTYPE svg PUBLIC "-//W3C//DTD SVG 1.1//EN" "http://www.w3.org/Graphics/SVG/1.1/DTD/svg11.dtd"><svg t="1781046149421" class="icon" viewBox="0 0 1024 1024" version="1.1" xmlns="http://www.w3.org/2000/svg" p-id="7110" xmlns:xlink="http://www.w3.org/1999/xlink" width="256" height="256"><path d="M128.923683 841.214202H127.725088V191.775263c0-70.517362 171.798673-127.850176 383.550527-127.850175s383.550527 57.532579 383.550526 127.850175v63.925088c0 3.39602-0.399532 6.792041-1.198595 10.188061v97.485759c0.399532-0.199766 0.799064-0.599298 1.198595-0.799064v63.925088h63.925088V191.775263c0-154.41904-291.857979-191.775263-447.475614-191.775263-156.017167 0-447.475615 37.555989-447.475615 191.775263v639.250878c0 60.329302 44.34803 102.679672 107.873586 132.04526v-72.714788c-23.572376-14.982442-38.554819-31.563012-42.749903-49.142411zM893.627546 841.214202z" p-id="7111"></path><path d="M127.725088 841.214202h1.198595c-0.799064-3.39602-1.198595-6.792041-1.198595-10.188061v10.188061z" p-id="7112"></path><path d="M419.183535 554.350371c18.178697 0 42.150605 5.393679 71.715958 16.380803 3.595786 1.198595 6.392509 1.997659 8.390168 1.997659 1.797893 0 6.991806-1.997659 15.981272-5.793211 2.796723-1.198595 5.793211-1.997659 8.989465-1.997659 11.786188 0 24.37144 11.386656 37.555989 33.960203 13.184549 22.573547 19.776824 44.148264 19.776824 64.524386 0 11.985954-2.996488 21.974249-8.789699 30.16465-5.992977 8.190402-13.184549 12.385486-21.574718 12.385486-6.991806 0-12.785018-1.797893-17.179867-5.193913-4.39485-3.39602-14.183379-13.584081-29.165821-30.364417-21.175185-23.772142-42.150605-35.758096-62.526727-35.758096-9.988295 0-17.779165 2.796723-23.772142 8.589934s-8.7897 13.384315-8.789699 22.773312c0 18.578229 13.584081 32.561842 40.552477 41.950839 36.55716 12.984783 60.129536 22.573547 70.317597 28.366758 45.147093 26.369099 67.72064 65.323449 67.72064 116.663285 0 45.346859-15.381974 82.503316-46.145923 111.269606-31.563012 29.365587-72.515021 44.148264-123.455326 44.148264-22.573547 0-46.545455-3.196254-71.715958-9.788529-25.170503-6.592275-43.149434-14.183379-54.336324-22.773313-8.390168-6.792041-16.181038-21.774483-22.973079-44.547795-6.792041-22.973078-10.188061-45.147093-10.188061-66.921577 0-10.387827 1.797893-18.378463 5.39368-23.572376 4.39485-6.792041 9.988295-10.188061 16.780335-10.188061 6.792041 0 13.184549 4.195084 19.377292 12.385486 3.795552 4.594616 12.385486 19.776824 26.169333 45.147093 6.592275 11.985954 16.980101 21.774483 31.163481 29.765119 14.183379 7.79087 28.966055 11.786188 44.148263 11.786189 13.184549 0 23.772142-2.996488 31.762778-8.7897 8.190402-5.793211 12.18572-13.384315 12.18572-22.573547 0-8.589934-3.196254-15.781506-9.588763-21.974249-6.392509-6.192743-16.780336-11.985954-30.963714-17.179867-25.370269-9.588763-44.547796-18.378463-57.932111-26.369099-13.184549-7.990636-25.570035-17.978931-37.156458-30.16465-27.967226-29.765119-41.950839-63.725322-41.950838-101.680843 0-18.777995 3.595786-36.956691 10.787358-54.735857 7.191572-17.779165 17.579399-33.161139 30.763949-46.145922 29.565353-30.763948 65.722981-45.746391 108.672649-45.746391zM785.554194 564.937963c34.359735 0 64.724151 7.591104 91.09325 22.773313 10.387827 6.192743 18.777995 14.782677 24.770972 25.769801 6.192743 10.987124 9.189231 22.773313 9.189231 35.358564 0 22.973078-9.988295 44.148264-29.964885 63.32579-5.593445 5.593445-8.390168 9.988295-8.390167 13.184549 0 6.192743 4.994147 10.387827 15.182208 12.785018 47.74405 10.587593 71.715958 42.550137 71.715958 95.887632 0 33.560671-9.788529 64.124854-29.165821 91.692548-18.378463 26.568865-45.546625 46.145923-81.504487 58.731174-25.769801 8.989465-54.136559 13.384315-85.100274 13.384315-36.357394 0-67.321108-5.992977-93.290675-18.178697-16.380804-7.591104-24.571206-18.777995-24.571205-33.560671 0-9.189231 2.796723-16.980101 8.390168-23.172844 5.593445-6.192743 12.385486-9.388997 20.376121-9.388997 4.39485 0 16.380804 2.596957 35.758096 7.990636 6.392509 1.997659 15.381974 2.796723 27.367929 2.796722 21.175185 0 38.155287-5.793211 50.740538-17.579399 13.184549-12.585252 19.97659-26.968396 19.97659-43.149434 0-15.182208-5.193913-27.567694-15.381974-37.156457-10.188061-9.788529-23.37261-14.582911-39.553648-14.582911-10.188061 0-19.177526 1.398361-26.968397 4.195084-4.594616 1.797893-7.990636 2.596957-10.387827 2.596956-4.594616 0-9.388997-5.593445-14.183378-16.980101-4.794382-11.386656-7.391338-22.174015-7.391339-32.961373 0-5.193913 1.198595-8.589934 3.396021-10.387827 2.197425-1.797893 9.588763-5.193913 21.974249-10.387827 11.18689-4.39485 21.774483-12.984783 32.162309-25.570035 7.79087-9.588763 11.586422-19.97659 11.586422-30.963714 0-12.18572-3.995318-22.573547-11.985953-31.563012-7.990636-8.7897-17.579399-13.184549-28.566524-13.18455-6.792041 0-12.385486 0.998829-17.179867 2.796723-4.594616 1.997659-13.384315 6.991806-25.769801 14.982442-3.795552 2.397191-6.592275 3.595786-8.7897 3.595786-4.39485 0-8.589934-3.795552-12.585252-11.18689-3.995318-7.391338-5.992977-15.381974-5.992977-23.572376 0-14.582911 10.587593-28.166992 31.762778-40.952009 13.184549-8.190402 29.165821-14.582911 47.943816-19.577059 17.978931-5.393679 35.957862-7.79087 53.337495-7.79087z" p-id="7113"></path></svg>